# xmcd CD database file
#
# Track frame offsets:
#	150
#	12738
#	24333
#	35847
#	48743
#	61228
#	74932
#	87782
#	101106
#	114906
#	127730
#	141613
#	153842
#	167621
#	180924
#	193949
#	207338
#	221546
#	234302
#	247109
#	261369
#	275340
#	288086
#	301587
#	314426
#	328175
#
# Disc length: 4524 seconds
#
# Revision: 0
# Processed by: cddbd v1.5.1PL0 Copyright (c) Steve Scherf et al.
# Submitted via: CDex 1.50beta9
#
DISCID=8311aa1a
DTITLE=Earl Hines - Rosetta - CD2
DYEAR=1900
DGENRE=Jazz
TTITLE0=Up Jumped The Devil
TTITLE1=On The Sunny Side Of The Street
TTITLE2=My Melancholy Baby
TTITLE3=Windy City live
TTITLE4=The Earl
TTITLE5=Second Balcony Jump
TTITLE6=Straight Life
TTITLE7=Rosetta
TTITLE8=At The El Grotto
TTITLE9=Now That Youre Mine
TTITLE10=Spooks Ball
TTITLE11=Margie
TTITLE12=Lets Get Started
TTITLE13=Aint Gonna Give Nonve Of This Jelly Roll
TTITLE14=Blue Keys
TTITLE15=Oh My Aching Back
TTITLE16=Thowing The Switch
TTITLE17=Midnight In New Orleans
TTITLE18=Sweet Honey Babe
TTITLE19=When I Drem Of You
TTITLE20=Trickatrack
TTITLE21=Aint Misbehavin
TTITLE22=Bamby
TTITLE23=I Need A Shoulder To Cry On
TTITLE24=Black And Blue
TTITLE25=Louise
EXTD=
EXTT0=
EXTT1=
EXTT2=
EXTT3=
EXTT4=
EXTT5=
EXTT6=
EXTT7=
EXTT8=
EXTT9=
EXTT10=
EXTT11=
EXTT12=
EXTT13=
EXTT14=
EXTT15=
EXTT16=
EXTT17=
EXTT18=
EXTT19=
EXTT20=
EXTT21=
EXTT22=
EXTT23=
EXTT24=
EXTT25=
PLAYORDER=
